<svg id="Layer_1" data-name="Layer 1" xmlns="http://www.w3.org/2000/svg" viewBox="0 0 188 36"><defs><style>.cls-1,.cls-5{fill:#06264e;}.cls-2{fill:#90a7fd;}.cls-3{fill:#3b65f3;}.cls-4{fill:#5e80fd;}.cls-5{font-size:12.36px;font-family:Axiforma-Regular, Axiforma;letter-spacing:-0.05em;}.cls-6{letter-spacing:-0.05em;}.cls-7{letter-spacing:-0.07em;}.cls-8{letter-spacing:-0.05em;}</style></defs><path class="cls-1" d="M48.31,23.12V13.55h2.53v9.57Z"/><path class="cls-1" d="M55,23.12l-3.86-9.57H53.8l1.8,4.89.53,1.63c.13-.42.22-.69.26-.82s.17-.54.27-.81l1.82-4.89h2.6l-3.8,9.57Z"/><path class="cls-1" d="M67.1,20.08l2.53.42a4.13,4.13,0,0,1-1.54,2.11,4.46,4.46,0,0,1-2.63.73,4.27,4.27,0,0,1-3.69-1.63,5.49,5.49,0,0,1-1-3.3,5.29,5.29,0,0,1,1.25-3.73,4.1,4.1,0,0,1,3.14-1.34,4.23,4.23,0,0,1,3.37,1.41,6.18,6.18,0,0,1,1.18,4.32H63.42A2.57,2.57,0,0,0,64,20.82a1.92,1.92,0,0,0,1.46.63,1.53,1.53,0,0,0,1-.33A1.91,1.91,0,0,0,67.1,20.08Zm.15-2.56a2.45,2.45,0,0,0-.57-1.67,1.81,1.81,0,0,0-2.68,0,2.32,2.32,0,0,0-.54,1.64Z"/><rect class="cls-1" x="70.21" y="9.91" width="2.2" height="5.89"/><path class="cls-2" d="M38.63,16.33l1.26-7.26h6.78l-1,2.39-3.81,0-.42,2.46a4.34,4.34,0,0,1,.6-.14L42,16a2.52,2.52,0,0,0-1.29.95"/><path class="cls-3" d="M38.17,18.83h2.08a2.58,2.58,0,0,0,5.13-.43,2.6,2.6,0,0,0-.94-2l.83-2.1a4.94,4.94,0,0,1,2.37,4.11,4.75,4.75,0,0,1-4.75,4.74,4.62,4.62,0,0,1-4.72-4.24"/><path class="cls-4" d="M44.68,14,42.79,18.4l-.07-4.73.36,0a4.87,4.87,0,0,1,.55.06c.22,0,.45.09.67.15Z"/><path class="cls-1" d="M69.72,20.08a1.79,1.79,0,0,1,0,.22c0,.17-.05.2-.05.2l-2.53-.42Z"/><text class="cls-5" transform="translate(72.98 23.12)">C<tspan class="cls-6" x="8.96" y="0">orpo</tspan><tspan class="cls-7" x="35.53" y="0">r</tspan><tspan class="cls-8" x="39.41" y="0">ation</tspan></text></svg>