<svg id="Layer_1" data-name="Layer 1" xmlns="http://www.w3.org/2000/svg" viewBox="0 0 188 36"><defs><style>.cls-1,.cls-5{fill:#06264e;}.cls-2{fill:#90a7fd;}.cls-3{fill:#3b65f3;}.cls-4{fill:#5e80fd;}.cls-5{font-size:15.72px;font-family:Axiforma-Regular, Axiforma;letter-spacing:-0.05em;}.cls-6{letter-spacing:-0.05em;}.cls-7{letter-spacing:-0.08em;}</style></defs><path class="cls-1" d="M37.72,25.76V13.58h3.22V25.76Z"/><path class="cls-1" d="M46.23,25.76,41.32,13.58H44.7L47,19.79l.66,2.08c.18-.53.29-.87.33-1,.11-.35.22-.69.35-1l2.31-6.21H54L49.13,25.76Z"/><path class="cls-1" d="M61.62,21.88l3.21.54a5.26,5.26,0,0,1-1.95,2.69,5.79,5.79,0,0,1-3.34.92A5.44,5.44,0,0,1,54.84,24a7,7,0,0,1-1.21-4.2A6.69,6.69,0,0,1,55.22,15a5.2,5.2,0,0,1,4-1.71A5.4,5.4,0,0,1,63.5,15.1q1.57,1.8,1.5,5.5H56.94a3.28,3.28,0,0,0,.77,2.23,2.45,2.45,0,0,0,1.86.79,1.92,1.92,0,0,0,1.27-.41A2.46,2.46,0,0,0,61.62,21.88Zm.19-3.25a3.14,3.14,0,0,0-.73-2.13,2.21,2.21,0,0,0-1.67-.73,2.25,2.25,0,0,0-1.74.77A3,3,0,0,0,57,18.63Z"/><rect class="cls-1" x="65.57" y="8.95" width="2.8" height="7.49"/><path class="cls-2" d="M25.41,17.11,27,7.89h8.62l-1.3,3-4.85,0L28.94,14a5.41,5.41,0,0,1,.77-.19l0,2.79A3.31,3.31,0,0,0,28,17.83"/><path class="cls-3" d="M24.82,20.3h2.65a3.28,3.28,0,1,0,5.33-3.09l1.06-2.67a6.28,6.28,0,0,1,3,5.23,6,6,0,0,1-6,6,5.85,5.85,0,0,1-6-5.39"/><path class="cls-4" d="M33.1,14.17l-2.4,5.58-.09-6,.46,0a5.56,5.56,0,0,1,.7.08,8.64,8.64,0,0,1,.85.19Z"/><path class="cls-1" d="M65,21.88a.89.89,0,0,1,0,.28c-.06.21-.07.26-.07.26l-3.21-.54Z"/><text class="cls-5" transform="translate(69.09 25.75)">C<tspan class="cls-6" x="11.4" y="0">orpo</tspan><tspan class="cls-7" x="45.19" y="0">r</tspan><tspan class="cls-6" x="50.13" y="0">ation</tspan></text></svg>