<svg id="Layer_1" data-name="Layer 1" xmlns="http://www.w3.org/2000/svg" viewBox="0 0 188 36"><defs><style>.cls-1,.cls-6,.cls-7,.cls-8{fill:#06264e;}.cls-2{fill:#90a7fd;}.cls-3{fill:#3b65f3;}.cls-4{fill:#5e80fd;}.cls-5,.cls-6,.cls-7,.cls-8{isolation:isolate;}.cls-6,.cls-7,.cls-8{font-size:19.28px;font-family:Axiforma-Regular, Axiforma;}.cls-6{letter-spacing:-0.05em;}.cls-7{letter-spacing:-0.11em;}.cls-8{letter-spacing:-0.05em;}</style></defs><path class="cls-1" d="M15.71,26.45V11.51h3.95V26.45Z"/><path class="cls-1" d="M26.15,26.45l-6-14.94h4.15l2.82,7.62.81,2.55c.22-.65.36-1.07.4-1.23.14-.43.27-.84.43-1.22l2.84-7.62h4.11l-6,14.84Z"/><path class="cls-1" d="M45,21.69l3.93.66a6.45,6.45,0,0,1-2.39,3.3,7.09,7.09,0,0,1-4.1,1.13,6.64,6.64,0,0,1-5.76-2.49,8.65,8.65,0,0,1-1.49-5.15,8.26,8.26,0,0,1,2-5.89,6.41,6.41,0,0,1,4.91-2.1,6.62,6.62,0,0,1,5.25,2.22q1.94,2.22,1.84,6.75H39.28a4.09,4.09,0,0,0,.95,2.74,3,3,0,0,0,2.28,1,2.38,2.38,0,0,0,1.56-.51A3.06,3.06,0,0,0,45,21.69Zm.23-4a3.88,3.88,0,0,0-.9-2.61,2.7,2.7,0,0,0-2-.89,2.76,2.76,0,0,0-2.13.94,3.67,3.67,0,0,0-.82,2.56Z"/><rect class="cls-1" x="49.87" y="5.83" width="3.43" height="9.19"/><path class="cls-2" d="M.6,15.84l2-11.31H13.13L11.54,8.21H5.59L4.94,12a7.17,7.17,0,0,1,.94-.23v3.42a4.2,4.2,0,0,0-2.1,1.51"/><path class="cls-3" d="M-.12,19.75H3.13A4,4,0,1,0,9.67,16L11,12.69a7.69,7.69,0,0,1,3.68,6.41,7.35,7.35,0,0,1-7.36,7.36A7.18,7.18,0,0,1-.07,19.85"/><path class="cls-4" d="M10,12.23,7.09,19.08,7,11.72h.57a6.3,6.3,0,0,1,.86.1,9.18,9.18,0,0,1,1,.23Z"/><path class="cls-1" d="M49.17,21.69a1,1,0,0,1,0,.35c-.07.25-.08.31-.08.31l-3.94-.66Z"/><g class="cls-5"><text class="cls-6" transform="translate(54.19 26.44)">C</text><text class="cls-6" transform="translate(68.17 26.44)">orpo</text><text class="cls-7" transform="translate(109.63 26.44)">r</text><text class="cls-8" transform="translate(115.69 26.44)">ation</text></g></svg>