<svg id="Layer_1" data-name="Layer 1" xmlns="http://www.w3.org/2000/svg" viewBox="0 0 29 33"><defs><style>.cls-1{fill:#fff;}.cls-2{fill:#90a7fd;}.cls-3{fill:#3b65f3;}.cls-4{fill:#5e80fd;}</style></defs><rect class="cls-1" width="29" height="33" rx="2.52"/><path class="cls-2" d="M6.26,16.81,8.79,2.16H22.51L20.44,7h-7.7l-.8,5a9.69,9.69,0,0,1,1.21-.29l-.05,4.43A5.21,5.21,0,0,0,10.43,18"/><path class="cls-3" d="M5.32,21.86h4.2A5.22,5.22,0,1,0,18,17l1.7-4.24A10,10,0,0,1,24.48,21a9.59,9.59,0,0,1-9.59,9.57h0A9.3,9.3,0,0,1,5.34,22"/><path class="cls-4" d="M18.47,12.14,14.66,21l-.14-9.56.73,0a6.75,6.75,0,0,1,1.1.14q.67.12,1.35.3Z"/></svg>