<svg id="Layer_1" data-name="Layer 1" xmlns="http://www.w3.org/2000/svg" viewBox="0 0 139 36"><defs><style>.cls-1{fill:#06264e;}.cls-2{fill:#90a7fd;}.cls-3{fill:#3b65f3;}.cls-4{fill:#5e80fd;}</style></defs><path class="cls-1" d="M53.64,35.58v-24H60v24Z"/><path class="cls-1" d="M70.39,35.58l-9.66-24h6.66L71.9,23.85l1.3,4.08c.35-1,.57-1.72.66-2.05.21-.68.44-1.36.68-2l4.55-12.23h6.52l-9.52,24Z"/><path class="cls-1" d="M100.68,28,107,29a10.33,10.33,0,0,1-3.84,5.29,11.29,11.29,0,0,1-6.57,1.82q-6.26,0-9.25-4.09A13.68,13.68,0,0,1,85,23.78q0-6,3.11-9.33a10.25,10.25,0,0,1,7.87-3.37,10.64,10.64,0,0,1,8.44,3.53q3.09,3.53,3,10.82H91.46A6.36,6.36,0,0,0,93,29.81a4.79,4.79,0,0,0,3.65,1.57,3.9,3.9,0,0,0,2.51-.81A5.06,5.06,0,0,0,100.68,28Zm.36-6.4a6.1,6.1,0,0,0-1.42-4.19,4.58,4.58,0,0,0-6.72.08,5.85,5.85,0,0,0-1.33,4.11Z"/><rect class="cls-1" x="108.45" y="2.5" width="5.52" height="14.74"/><path class="cls-2" d="M29.42,18.57,32.56.42h17L47,6.38l-9.54,0-1,6.15a10.92,10.92,0,0,1,1.5-.36l-.06,5.49A6.43,6.43,0,0,0,34.59,20"/><path class="cls-3" d="M28.26,24.83h5.21A6.46,6.46,0,1,0,44,18.76l2.1-5.25A12.36,12.36,0,0,1,52,23.8,11.87,11.87,0,0,1,40.08,35.66a11.52,11.52,0,0,1-11.8-10.6"/><path class="cls-4" d="M44.56,12.79l-4.72,11-.18-11.85.9.07c.46,0,.92.1,1.37.17a16.07,16.07,0,0,1,1.67.37Z"/><path class="cls-1" d="M107.23,28a2.3,2.3,0,0,1-.11.54c-.1.42-.13.51-.13.51L100.68,28Z"/></svg>