<svg id="Layer_1" data-name="Layer 1" xmlns="http://www.w3.org/2000/svg" viewBox="0 0 29 33"><defs><style>.cls-1{fill:#90a7fd;}.cls-2{fill:#3b65f3;}.cls-3{fill:#5e80fd;}</style></defs><path class="cls-1" d="M4.47,17,7.41,0H23.33l-2.4,5.58H12l-.94,5.76A9.65,9.65,0,0,1,12.47,11l-.06,5.14a6.08,6.08,0,0,0-3.1,2.19"/><path class="cls-2" d="M3.39,22.86H8.26a6,6,0,1,0,9.86-5.69l2-4.91a11.57,11.57,0,0,1,5.52,9.63A11.11,11.11,0,0,1,14.49,33h0a10.81,10.81,0,0,1-11-9.93"/><path class="cls-3" d="M18.65,11.58l-4.42,10.3-.17-11.09.84.06a9.47,9.47,0,0,1,1.29.16,14.56,14.56,0,0,1,1.56.35Z"/></svg>