<svg id="Layer_1" data-name="Layer 1" xmlns="http://www.w3.org/2000/svg" viewBox="0 0 139 36"><defs><style>.cls-1{fill:#06264e;}.cls-2{fill:#fff;}.cls-3{fill:#90a7fd;}.cls-4{fill:#3b65f3;}.cls-5{fill:#5e80fd;}</style></defs><path class="cls-1" d="M26.05,35.1v-24h6.36v24Z"/><path class="cls-1" d="M42.8,35.1l-9.66-24H39.8l4.51,12.27,1.3,4.08c.35-1,.57-1.72.66-2.05.21-.68.44-1.36.68-2L51.5,11.17H58l-9.52,24Z"/><path class="cls-1" d="M73.09,27.52l6.32,1a10.31,10.31,0,0,1-3.84,5.29A11.26,11.26,0,0,1,69,35.63q-6.26,0-9.25-4.09a13.69,13.69,0,0,1-2.34-8.24q0-6,3.11-9.33a10.24,10.24,0,0,1,7.87-3.37,10.65,10.65,0,0,1,8.44,3.53q3.09,3.53,3,10.82h-16a6.33,6.33,0,0,0,1.54,4.38,4.77,4.77,0,0,0,3.65,1.57,3.93,3.93,0,0,0,2.51-.81A5.09,5.09,0,0,0,73.09,27.52Zm.36-6.4A6.1,6.1,0,0,0,72,16.93a4.59,4.59,0,0,0-6.48-.17l-.24.25A5.84,5.84,0,0,0,64,21.12Z"/><rect class="cls-1" x="80.86" y="2.02" width="5.52" height="14.74"/><rect class="cls-2" x="90.07" y="2.02" width="47.71" height="14.74"/><path class="cls-3" d="M1.83,18.45,5,.3H22l-2.56,6H9.87l-1,6.15a12.6,12.6,0,0,1,1.5-.36l-.06,5.49A6.49,6.49,0,0,0,7,19.88"/><path class="cls-4" d="M.67,24.71H5.88a6.46,6.46,0,1,0,10.53-6.07l2.1-5.25a12.38,12.38,0,0,1,5.9,10.29A11.86,11.86,0,0,1,12.53,35.54h0A11.52,11.52,0,0,1,.69,24.94"/><path class="cls-5" d="M17,12.67l-4.72,11-.18-11.85.9.07a9,9,0,0,1,1.37.17c.56.1,1.12.22,1.67.37Z"/><path class="cls-1" d="M79.64,27.52a2.35,2.35,0,0,1-.11.54c-.1.42-.13.51-.13.51l-6.31-1.05Z"/></svg>