<svg id="Layer_1" data-name="Layer 1" xmlns="http://www.w3.org/2000/svg" viewBox="0 0 139 36"><defs><style>.cls-1{fill:#0f254b;}</style></defs><path class="cls-1" d="M28.77,25.61a5.24,5.24,0,0,0,2.1,3.77,7.18,7.18,0,0,0,4.58,1.5,6.23,6.23,0,0,0,4.81-2,7.59,7.59,0,0,0,1.8-5.31,7.64,7.64,0,0,0-1.84-5.28,6,6,0,0,0-4.71-2.06A7.74,7.74,0,0,0,29.1,19.2l-4.8-.46L27.77.31H46.33v5H31.84L30.1,14.13a10.3,10.3,0,0,1,6.82-2.27,10.44,10.44,0,0,1,7.94,3.33,11.89,11.89,0,0,1,3.21,8.29,11.36,11.36,0,0,1-3.71,8.91,13.68,13.68,0,0,1-9.45,3.3,12.87,12.87,0,0,1-7.71-2.47,10,10,0,0,1-4.11-6.88Zm.33-6.41-5.33.06,4-19"/><path class="cls-1" d="M49.24,34.52v-24h6.34v24Z"/><path class="cls-1" d="M66,34.52l-9.65-24H63l4.51,12.23,1.31,4.08c.35-1,.57-1.72.66-2.05.21-.68.43-1.36.67-2l4.56-12.23h6.52l-9.52,24Z"/><path class="cls-1" d="M96.28,26.89,102.59,28a10.33,10.33,0,0,1-3.84,5.29,11.32,11.32,0,0,1-6.58,1.82q-6.24,0-9.24-4.09a13.7,13.7,0,0,1-2.37-8.25q0-6,3.11-9.33A10.24,10.24,0,0,1,91.54,10,10.66,10.66,0,0,1,100,13.55q3.09,3.52,3,10.82H87.05a6.42,6.42,0,0,0,1.54,4.38,4.76,4.76,0,0,0,3.65,1.57,3.87,3.87,0,0,0,2.5-.81A5,5,0,0,0,96.28,26.89Zm.36-6.4a6.15,6.15,0,0,0-1.42-4.19,4.58,4.58,0,0,0-6.72.08,5.8,5.8,0,0,0-1.33,4.11Z"/><rect class="cls-1" x="104.05" y="1.44" width="5.52" height="14.74"/><polygon class="cls-1" points="23.09 26.34 23.08 25.61 28.77 25.61 23.62 26.7 23.09 26.34"/><line class="cls-1" x1="18.91" y1="25.74" x2="19.61" y2="29.2"/><polygon class="cls-1" points="102.94 26.87 102.54 28.1 96.28 26.89 102.94 26.87"/></svg>